<?xml version="1.0" encoding="utf-8"?>
<!-- Generator: Adobe Illustrator 17.0.2, SVG Export Plug-In . SVG Version: 6.00 Build 0)  -->
<!DOCTYPE svg PUBLIC "-//W3C//DTD SVG 1.1//EN" "http://www.w3.org/Graphics/SVG/1.1/DTD/svg11.dtd">
<svg version="1.1" id="Layer_1" xmlns="http://www.w3.org/2000/svg" xmlns:xlink="http://www.w3.org/1999/xlink" x="0px" y="0px"
	 width="446.24px" height="122.055px" viewBox="0 0 446.24 122.055" enable-background="new 0 0 446.24 122.055"
	 xml:space="preserve">
<g>
	<path fill="#383A35" d="M0,121.659V98.555h17.426v4.521H5.05v4.688h10.892v4.521H5.05v4.852h12.542v4.521H0z"/>
	<path fill="#383A35" d="M44.92,121.659l-11.188-14.688v14.688h-5.017V98.555h4.687l10.826,14.226V98.555h5.017v23.104H44.92z"/>
	<path fill="#383A35" d="M72.58,121.824h-4.489l-9.34-23.269h5.611l6.04,16.271l6.04-16.271h5.479L72.58,121.824z"/>
	<path fill="#383A35" d="M91.988,121.659V98.555h5.083v23.104H91.988z"/>
	<path fill="#383A35" d="M117.667,121.989c-3.499,0-7.03-1.222-9.803-3.696l3.003-3.598c2.08,1.716,4.258,2.806,6.898,2.806
		c2.08,0,3.333-0.825,3.333-2.179v-0.066c0-1.287-0.792-1.947-4.653-2.938c-4.654-1.188-7.657-2.475-7.657-7.062v-0.066
		c0-4.191,3.367-6.964,8.086-6.964c3.367,0,6.238,1.057,8.582,2.938l-2.641,3.829c-2.046-1.42-4.06-2.277-6.007-2.277
		s-2.97,0.891-2.97,2.013v0.066c0,1.518,0.99,2.013,4.984,3.036c4.687,1.222,7.327,2.904,7.327,6.931v0.066
		C126.148,119.415,122.65,121.989,117.667,121.989z"/>
	<path fill="#383A35" d="M137.404,121.659V98.555h5.083v23.104H137.404z"/>
	<path fill="#383A35" d="M165.426,122.055c-7.129,0-12.245-5.314-12.245-11.882v-0.066c0-6.567,5.182-11.947,12.311-11.947
		s12.245,5.313,12.245,11.881v0.066C177.737,116.675,172.555,122.055,165.426,122.055z M172.423,110.107
		c0-3.961-2.905-7.261-6.997-7.261c-4.093,0-6.931,3.234-6.931,7.194v0.066c0,3.961,2.904,7.261,6.997,7.261
		s6.931-3.234,6.931-7.194V110.107z"/>
	<path fill="#383A35" d="M203.085,121.659l-11.188-14.688v14.688h-5.017V98.555h4.687l10.826,14.226V98.555h5.017v23.104H203.085z"
		/>
	<path fill="#383A35" d="M246.884,122.055c-6.799,0-11.849-5.248-11.849-11.882v-0.066c0-6.567,4.95-11.947,12.047-11.947
		c4.356,0,6.964,1.452,9.109,3.564l-3.235,3.729c-1.782-1.617-3.597-2.607-5.907-2.607c-3.895,0-6.7,3.234-6.7,7.194v0.066
		c0,3.961,2.739,7.261,6.7,7.261c2.641,0,4.258-1.056,6.072-2.706l3.235,3.268C253.979,120.47,251.339,122.055,246.884,122.055z"/>
	<path fill="#383A35" d="M280.055,121.659l-4.951-7.394h-3.993v7.394h-5.083V98.555h10.562c5.445,0,8.713,2.872,8.713,7.624v0.066
		c0,3.729-2.013,6.072-4.95,7.162l5.644,8.251H280.055z M280.153,106.444c0-2.179-1.519-3.301-3.993-3.301h-5.05v6.634h5.148
		c2.476,0,3.895-1.32,3.895-3.268V106.444z"/>
	<path fill="#383A35" d="M296.492,121.659V98.555h17.427v4.521h-12.377v4.688h10.892v4.521h-10.892v4.852h12.542v4.521H296.492z"/>
	<path fill="#383A35" d="M341.742,121.659l-2.112-5.182h-9.77l-2.112,5.182h-5.182l9.901-23.269h4.687l9.901,23.269H341.742z
		 M334.745,104.497l-3.069,7.492h6.139L334.745,104.497z"/>
	<path fill="#383A35" d="M363.396,103.242v18.417h-5.083v-18.417h-7.03v-4.687h19.143v4.687H363.396z"/>
	<path fill="#383A35" d="M381.152,121.659V98.555h5.082v23.104H381.152z"/>
	<path fill="#383A35" d="M410.461,121.824h-4.488l-9.341-23.269h5.611l6.039,16.271l6.04-16.271h5.479L410.461,121.824z"/>
	<path fill="#383A35" d="M428.648,121.659V98.555h17.427v4.521h-12.377v4.688h10.892v4.521h-10.892v4.852h12.542v4.521H428.648z"/>
</g>
<g>
	<g>
		<path fill="#383A35" d="M159.117,52.175V7.261h33.878v8.79h-24.062v9.111h21.174v8.791h-21.174v9.432h24.382v8.791H159.117z"/>
		<path fill="#008FBE" d="M216.929,59.415V0h7.699v59.415H216.929z"/>
		<path fill="#383A35" d="M268.709,52.945c-13.218,0-23.035-10.202-23.035-23.099v-0.128c0-12.769,9.625-23.227,23.42-23.227
			c8.47,0,13.538,2.823,17.709,6.93l-6.288,7.25c-3.465-3.144-6.994-5.069-11.485-5.069c-7.571,0-13.025,6.288-13.025,13.988v0.128
			c0,7.7,5.326,14.116,13.025,14.116c5.133,0,8.277-2.053,11.807-5.261l6.287,6.352C282.504,49.865,277.371,52.945,268.709,52.945z"
			/>
	</g>
</g>
</svg>
